HIERARCHY
ROOT Hips
{
	OFFSET 0.00000 0.00000 0.00000
	CHANNELS 6 Xposition Yposition Zposition Zrotation Yrotation Xrotation 
	JOINT LHipJoint
	{
		OFFSET 0 0 0
		CHANNELS 3 Zrotation Yrotation Xrotation
		JOINT LeftUpLeg
		{
			OFFSET 1.61024 -1.73873 0.75100
			CHANNELS 3 Zrotation Yrotation Xrotation
			JOINT LeftLeg
			{
				OFFSET 2.29819 -6.31424 0.00000
				CHANNELS 3 Zrotation Yrotation Xrotation
				JOINT LeftFoot
				{
					OFFSET 2.76618 -7.60002 0.00000
					CHANNELS 3 Zrotation Yrotation Xrotation
					JOINT LeftToeBase
					{
						OFFSET 0.16838 -0.46263 2.02361
						CHANNELS 3 Zrotation Yrotation Xrotation
						End Site
						{
							OFFSET 0.00000 -0.00000 1.04662
						}
					}
				}
			}
		}
	}
	JOINT RHipJoint
	{
		OFFSET 0 0 0
		CHANNELS 3 Zrotation Yrotation Xrotation
		JOINT RightUpLeg
		{
			OFFSET -1.46153 -1.73873 0.75100
			CHANNELS 3 Zrotation Yrotation Xrotation
			JOINT RightLeg
			{
				OFFSET -2.38373 -6.54924 0.00000
				CHANNELS 3 Zrotation Yrotation Xrotation
				JOINT RightFoot
				{
					OFFSET -2.80314 -7.70157 0.00000
					CHANNELS 3 Zrotation Yrotation Xrotation
					JOINT RightToeBase
					{
						OFFSET -0.16142 -0.44349 2.02101
						CHANNELS 3 Zrotation Yrotation Xrotation
						End Site
						{
							OFFSET -0.00000 -0.00000 1.04381
						}
					}
				}
			}
		}
	}
	JOINT LowerBack
	{
		OFFSET 0 0 0
		CHANNELS 3 Zrotation Yrotation Xrotation
		JOINT Spine
		{
			OFFSET -0.01629 1.66985 0.14750
			CHANNELS 3 Zrotation Yrotation Xrotation
			JOINT Spine1
			{
				OFFSET 0.02086 1.62378 0.20980
				CHANNELS 3 Zrotation Yrotation Xrotation
				JOINT Neck
				{
					OFFSET 0 0 0
					CHANNELS 3 Zrotation Yrotation Xrotation
					JOINT Neck1
					{
						OFFSET -0.05690 1.78719 0.08702
						CHANNELS 3 Zrotation Yrotation Xrotation
						JOINT Head
						{
							OFFSET 0.16035 1.73871 -0.38470
							CHANNELS 3 Zrotation Yrotation Xrotation
							End Site
							{
								OFFSET 0.05645 1.80914 -0.14081
							}
						}
					}
				}
				JOINT LeftShoulder
				{
					OFFSET 0 0 0
					CHANNELS 3 Zrotation Yrotation Xrotation
					JOINT LeftArm
					{
						OFFSET 2.83089 1.66494 -0.46008
						CHANNELS 3 Zrotation Yrotation Xrotation
						JOINT LeftForeArm
						{
							OFFSET 5.54893 -0.00000 -0.00000
							CHANNELS 3 Zrotation Yrotation Xrotation
							JOINT LeftHand
							{
								OFFSET 3.02898 -0.00000 -0.00000
								CHANNELS 3 Zrotation Yrotation Xrotation
								JOINT LeftFingerBase
								{
									OFFSET 0 0 0
									CHANNELS 3 Zrotation Yrotation Xrotation
									JOINT LeftHandIndex1
									{
										OFFSET 0.64095 -0.00000 -0.00000
										CHANNELS 3 Zrotation Yrotation Xrotation
										End Site
										{
											OFFSET 0.51675 -0.00000 -0.00000
										}
									}
								}
								JOINT LThumb
								{
									OFFSET 0 0 0
									CHANNELS 3 Zrotation Yrotation Xrotation
									End Site
									{
										OFFSET 0.52464 -0.00000 0.52464
									}
								}
							}
						}
					}
				}
				JOINT RightShoulder
				{
					OFFSET 0 0 0
					CHANNELS 3 Zrotation Yrotation Xrotation
					JOINT RightArm
					{
						OFFSET -2.84442 1.45761 -0.18088
						CHANNELS 3 Zrotation Yrotation Xrotation
						JOINT RightForeArm
						{
							OFFSET -5.35190 -0.00000 -0.00000
							CHANNELS 3 Zrotation Yrotation Xrotation
							JOINT RightHand
							{
								OFFSET -3.02531 -0.00000 -0.00000
								CHANNELS 3 Zrotation Yrotation Xrotation
								JOINT RightFingerBase
								{
									OFFSET 0 0 0
									CHANNELS 3 Zrotation Yrotation Xrotation
									JOINT RightHandIndex1
									{
										OFFSET -0.78389 -0.00000 -0.00000
										CHANNELS 3 Zrotation Yrotation Xrotation
										End Site
										{
											OFFSET -0.63199 -0.00000 -0.00000
										}
									}
								}
								JOINT RThumb
								{
									OFFSET 0 0 0
									CHANNELS 3 Zrotation Yrotation Xrotation
									End Site
									{
										OFFSET -0.64164 -0.00000 0.64164
									}
								}
							}
						}
					}
				}
			}
		}
	}
}
MOTION
Frames: 14
Frame Time: .0083333
-0.5899 17.8833 0.6571 -117.8480 87.3251 -106.4810 0.0000 0.0000 0.0000 0.0000 0.0000 0.0000 0.0000 0.0000 0.0000 0.0000 0.0000 0.0000 0.0000 0.0000 0.0000 0.0000 0.0000 0.0000 15.9202 17.3601 -4.5333 -0.1230 -2.2610 6.2276 1.0355 -18.4440 -12.6703 -1.7186 8.2534 -23.4866 2.2817 3.8128 -2.4474 0.0975 5.0526 -1.3366 -1.0353 2.5252 0.1843 5.4970 1.9175 -5.1237 22.6912 -0.8909 48.7186 11.7790 4.9363 20.9284 -0.0000 -0.0000 0.0000 -81.6005 -51.7531 44.6717 153.5452 -37.6543 -110.8359 -0.0000 0.0000 -52.0258 9.7326 19.8022 3.3255 -7.1250 0.0000 -0.0000 -18.2117 49.1601 -1.9263 -0.0000 -0.0000 0.0000 81.3093 10.7967 54.1777 -152.9308 38.2451 -110.4581 0.0000 0.0000 0.7699 -31.9195 30.9564 -17.7665 7.1250 -0.0000 -0.0000 -0.2730 5.2680 -0.2969
-0.5892 17.8831 0.6575 -117.7440 87.2786 -106.3960 0.0000 0.0000 0.0000 0.0000 0.0000 0.0000 0.0000 0.0000 0.0000 0.0000 0.0000 0.0000 0.0000 0.0000 0.0000 0.0000 0.0000 0.0000 15.9775 17.3428 -4.4996 -0.1222 -2.2531 6.2058 1.0338 -18.4330 -12.6741 -1.7437 8.3105 -23.6611 2.4112 3.8793 -2.3748 0.0632 5.1416 -1.3745 -1.1456 2.5683 0.1224 5.6909 2.1427 -5.0527 22.9428 -0.7012 48.2752 11.7132 5.0822 20.4974 -0.0000 0.0000 0.0000 -82.0620 -51.3696 44.9452 153.6161 -37.5853 -110.8792 -0.0000 0.0000 -51.9619 10.1515 19.3180 3.3899 -7.1250 0.0000 -0.0000 -17.6212 48.7577 -1.6811 -0.0000 0.0000 0.0000 81.3473 10.5691 54.0642 -152.9705 38.2073 -110.4827 0.0000 0.0000 0.7055 -31.8922 31.0348 -17.7868 7.1250 -0.0000 -0.0000 -0.2413 5.3439 -0.2627
-0.5892 17.8826 0.6575 -118.1720 87.2308 -106.8310 0.0000 0.0000 0.0000 0.0000 0.0000 0.0000 0.0000 0.0000 0.0000 0.0000 0.0000 0.0000 0.0000 0.0000 0.0000 0.0000 0.0000 0.0000 16.0293 17.2982 -4.4638 -0.1203 -2.2360 6.1582 1.0305 -18.4071 -12.6617 -1.7605 8.3484 -23.7772 2.5440 3.9322 -2.2985 0.0136 5.2134 -1.4357 -1.2753 2.6022 0.0360 5.8763 2.3040 -5.0329 23.1654 -0.5810 47.9578 11.6912 5.1938 20.2206 -0.0000 -0.0000 0.0000 -82.4708 -51.0127 45.2221 153.7520 -37.4525 -110.9620 -0.0000 0.0000 -52.0777 10.5745 18.8906 3.4588 -7.1250 0.0000 -0.0000 -17.0576 48.4073 -1.4735 -0.0000 -0.0000 0.0000 81.4149 10.3524 53.9578 -152.9851 38.1934 -110.4917 0.0000 0.0000 0.6986 -32.0881 30.7222 -17.7615 7.1250 -0.0000 -0.0000 -0.4163 5.0667 -0.4515
-0.5881 17.8828 0.6569 -118.4290 87.2011 -107.0510 0.0000 0.0000 0.0000 0.0000 0.0000 0.0000 0.0000 0.0000 0.0000 0.0000 0.0000 0.0000 0.0000 0.0000 0.0000 0.0000 0.0000 0.0000 16.0440 17.2754 -4.4660 -0.1177 -2.2120 6.0919 1.0342 -18.4216 -12.6135 -1.7848 8.4027 -23.9442 2.6503 3.9941 -2.2958 -0.0369 5.2959 -1.5000 -1.3857 2.6420 -0.0141 6.0331 2.4451 -5.0482 23.3699 -0.4747 47.6982 11.6926 5.2918 20.0104 -0.0000 0.0000 0.0000 -82.8726 -50.7386 45.5279 153.9751 -37.2333 -111.0973 -0.0000 0.0000 -52.3837 11.1145 18.5144 3.5696 -7.1250 0.0000 -0.0000 -16.4121 48.1199 -1.2958 -0.0000 0.0000 0.0000 81.4880 10.0965 53.7963 -153.0021 38.1772 -110.5022 0.0000 0.0000 0.6659 -32.3859 30.2981 -17.7442 7.1250 -0.0000 -0.0000 -0.6721 4.6987 -0.7250
-0.5881 17.8831 0.6570 -118.6820 87.1749 -107.2750 0.0000 0.0000 0.0000 0.0000 0.0000 0.0000 0.0000 0.0000 0.0000 0.0000 0.0000 0.0000 0.0000 0.0000 0.0000 0.0000 0.0000 0.0000 16.0625 17.2589 -4.4785 -0.1160 -2.1962 6.0483 1.0437 -18.4684 -12.5293 -1.7813 8.3949 -23.9202 2.6365 3.9837 -2.3231 -0.0141 5.2824 -1.5214 -1.3543 2.6352 -0.0247 6.1102 2.6310 -5.0835 23.4954 -0.2921 47.4368 11.6641 5.3900 19.7797 -0.0000 -0.0000 0.0000 -83.1832 -50.5273 45.4923 154.2189 -36.9918 -111.2444 -0.0000 0.0000 -52.6112 11.4276 18.5587 3.6811 -7.1250 0.0000 -0.0000 -16.1393 48.2067 -1.3085 -0.0000 -0.0000 0.0000 81.5128 9.9606 53.7775 -152.9997 38.1795 -110.5007 0.0000 0.0000 0.5775 -32.5120 30.1869 -17.7696 7.1250 -0.0000 -0.0000 -0.7663 4.6160 -0.8256
-0.5866 17.8833 0.6567 -119.1650 87.1691 -107.7370 0.0000 0.0000 0.0000 0.0000 0.0000 0.0000 0.0000 0.0000 0.0000 0.0000 0.0000 0.0000 0.0000 0.0000 0.0000 0.0000 0.0000 0.0000 16.0511 17.2307 -4.4751 -0.1141 -2.1782 5.9983 1.0423 -18.4590 -12.5315 -1.7676 8.3643 -23.8262 2.6253 3.9948 -2.3966 -0.0175 5.2952 -1.5177 -1.3453 2.6424 0.0199 6.1402 2.7480 -5.0882 23.6099 -0.1961 47.1379 11.6173 5.4421 19.5329 -0.0000 -0.0000 0.0000 -83.5258 -50.3894 45.5431 154.4494 -36.7615 -111.3827 -0.0000 0.0000 -52.5349 11.6400 18.6656 3.7720 -7.1250 0.0000 -0.0000 -15.9831 48.3405 -1.3491 -0.0000 -0.0000 0.0000 81.5152 9.8943 53.7180 -153.0013 38.1780 -110.5017 0.0000 0.0000 0.5433 -32.5576 30.1533 -17.7821 7.1250 -0.0000 -0.0000 -0.7991 4.5932 -0.8606
-0.5857 17.8831 0.6561 -119.7140 87.1478 -108.2930 0.0000 0.0000 0.0000 0.0000 0.0000 0.0000 0.0000 0.0000 0.0000 0.0000 0.0000 0.0000 0.0000 0.0000 0.0000 0.0000 0.0000 0.0000 16.0634 17.1845 -4.4376 -0.1122 -2.1600 5.9481 1.0392 -18.4480 -12.5774 -1.7379 8.2973 -23.6207 2.6444 4.0101 -2.3995 -0.0294 5.3154 -1.5266 -1.3674 2.6523 0.0161 6.4584 2.8188 -4.5913 23.5333 -0.0341 46.6888 11.3907 5.5256 19.0230 -0.0000 0.0000 0.0000 -83.8761 -50.2506 45.6363 154.6351 -36.5746 -111.4936 -0.0000 0.0000 -52.2104 11.8009 18.4727 3.7874 -7.1250 0.0000 -0.0000 -15.7611 48.1756 -1.2640 -0.0000 0.0000 0.0000 81.5291 9.8214 53.6148 -152.9835 38.1949 -110.4907 0.0000 0.0000 0.5473 -32.5349 30.1187 -17.7502 7.1250 -0.0000 -0.0000 -0.7935 4.5492 -0.8540
-0.5859 17.8825 0.6563 -120.3040 87.1175 -108.8900 0.0000 0.0000 0.0000 0.0000 0.0000 0.0000 0.0000 0.0000 0.0000 0.0000 0.0000 0.0000 0.0000 0.0000 0.0000 0.0000 0.0000 0.0000 16.0927 17.1361 -4.4047 -0.1105 -2.1434 5.9023 1.0433 -18.4622 -12.5165 -1.7876 8.4090 -23.9633 2.6850 4.0362 -2.3700 -0.0548 5.3510 -1.5520 -1.4179 2.6692 -0.0189 6.5339 2.8740 -4.5516 23.5985 -0.0194 46.2903 11.2785 5.5396 18.7400 0.0000 -0.0000 0.0000 -84.2432 -50.0703 45.7675 154.8415 -36.3655 -111.6163 -0.0000 0.0000 -51.7193 11.8660 18.1023 3.7353 -7.1250 0.0000 -0.0000 -15.5636 47.8238 -1.1097 0.0000 -0.0000 0.0000 81.5149 9.7495 53.4717 -152.9738 38.2042 -110.4847 0.0000 0.0000 0.5081 -32.5103 30.1531 -17.7517 7.1250 -0.0000 -0.0000 -0.7724 4.5792 -0.8317
-0.5856 17.8827 0.6565 -120.8400 87.1041 -109.4350 0.0000 0.0000 0.0000 0.0000 0.0000 0.0000 0.0000 0.0000 0.0000 0.0000 0.0000 0.0000 0.0000 0.0000 0.0000 0.0000 0.0000 0.0000 16.0995 17.0919 -4.3639 -0.1086 -2.1248 5.8506 1.0337 -18.4047 -12.5597 -1.7907 8.4157 -23.9840 2.6919 4.0504 -2.3480 -0.0746 5.3708 -1.5658 -1.4436 2.6786 -0.0419 6.5214 2.9314 -4.4812 23.7283 -0.0070 45.8004 11.1878 5.5381 18.3896 0.0000 -0.0000 0.0000 -84.5888 -49.9519 45.8158 155.0645 -36.1380 -111.7482 -0.0000 0.0000 -51.1102 11.7381 17.9630 3.6666 -7.1250 0.0000 -0.0000 -15.6308 47.6704 -1.0543 0.0000 -0.0000 0.0000 81.4817 9.6703 53.3790 -152.9633 38.2142 -110.4782 0.0000 0.0000 0.5218 -32.5967 30.1695 -17.8153 7.1250 -0.0000 -0.0000 -0.8178 4.6222 -0.8811
-0.5838 17.8826 0.6571 -121.1130 87.0785 -109.7030 0.0000 0.0000 0.0000 0.0000 0.0000 0.0000 0.0000 0.0000 0.0000 0.0000 0.0000 0.0000 0.0000 0.0000 0.0000 0.0000 0.0000 0.0000 16.1252 17.0626 -4.3404 -0.1069 -2.1083 5.8050 1.0359 -18.4131 -12.5293 -1.8173 8.4746 -24.1651 2.6725 4.0390 -2.3850 -0.0624 5.3551 -1.5713 -1.4183 2.6711 -0.0305 6.4917 2.9903 -4.4570 23.8433 0.0152 45.4238 11.1361 5.5380 18.1311 0.0000 0.0000 0.0000 -84.8902 -49.8454 45.6976 155.2816 -35.9148 -111.8759 -0.0000 0.0000 -50.5762 11.5121 18.0835 3.6175 -7.1250 0.0000 -0.0000 -15.8832 47.7568 -1.1067 0.0000 0.0000 0.0000 81.4187 9.5846 53.3795 -152.9778 38.2003 -110.4872 0.0000 0.0000 0.5444 -32.6298 30.0974 -17.8004 7.1250 -0.0000 -0.0000 -0.8515 4.5543 -0.9165
-0.5833 17.8818 0.6579 -121.1780 87.0455 -109.7950 0.0000 0.0000 0.0000 0.0000 0.0000 0.0000 0.0000 0.0000 0.0000 0.0000 0.0000 0.0000 0.0000 0.0000 0.0000 0.0000 0.0000 0.0000 16.1759 17.0327 -4.2837 -0.1054 -2.0929 5.7626 1.0345 -18.4070 -12.5457 -1.7959 8.4273 -24.0196 2.6516 4.0240 -2.3953 -0.0330 5.3351 -1.5621 -1.3764 2.6615 -0.0208 6.4601 3.0288 -4.5005 23.9038 0.0182 45.1641 11.0988 5.5279 17.9742 0.0000 -0.0000 0.0000 -85.1503 -49.7242 45.5528 155.5172 -35.6707 -112.0136 -0.0000 0.0000 -50.1000 11.1966 18.3644 3.5686 -7.1250 0.0000 -0.0000 -16.2792 47.9860 -1.2299 0.0000 -0.0000 0.0000 81.3486 9.5661 53.3796 -152.9956 38.1834 -110.4982 0.0000 0.0000 0.5389 -32.5424 30.0287 -17.7100 7.1250 -0.0000 -0.0000 -0.8164 4.4546 -0.8774
-0.5829 17.8819 0.6583 -121.5030 87.0167 -110.1460 0.0000 0.0000 0.0000 0.0000 0.0000 0.0000 0.0000 0.0000 0.0000 0.0000 0.0000 0.0000 0.0000 0.0000 0.0000 0.0000 0.0000 0.0000 16.2069 17.0032 -4.2664 -0.1062 -2.1010 5.7849 1.0277 -18.3728 -12.6031 -1.7549 8.3358 -23.7387 2.6047 4.0168 -2.3864 -0.0073 5.3266 -1.5594 -1.3253 2.6575 -0.0301 6.3809 3.0542 -4.4979 23.9784 0.0010 44.7397 11.0221 5.4942 17.7030 -0.0000 0.0000 0.0000 -85.3977 -49.5817 45.4997 155.7506 -35.4269 -112.1493 -0.0000 0.0000 -49.6743 11.0632 18.3697 3.5261 -7.1250 0.0000 -0.0000 -16.4043 47.9726 -1.2343 -0.0000 0.0000 0.0000 81.2695 9.5385 53.3666 -153.0175 38.1625 -110.5117 0.0000 0.0000 0.5304 -32.5656 30.0171 -17.7189 7.1250 -0.0000 -0.0000 -0.8319 4.4488 -0.8940
-0.5810 17.8814 0.6594 -122.1370 87.0122 -110.8120 0.0000 0.0000 0.0000 0.0000 0.0000 0.0000 0.0000 0.0000 0.0000 0.0000 0.0000 0.0000 0.0000 0.0000 0.0000 0.0000 0.0000 0.0000 16.2132 16.9646 -4.2414 -0.1074 -2.1136 5.8196 1.0259 -18.3686 -12.6386 -1.7499 8.3244 -23.7038 2.5021 3.9999 -2.4239 0.0149 5.3044 -1.5408 -1.2434 2.6475 -0.0022 6.2838 3.0634 -4.5019 24.0802 -0.0360 44.3732 10.9832 5.4547 17.4788 -0.0000 -0.0000 0.0000 -85.5992 -49.4922 45.4495 155.9526 -35.2143 -112.2661 -0.0000 0.0000 -49.3883 11.1613 18.1961 3.5256 -7.1250 0.0000 -0.0000 -16.2485 47.8180 -1.1585 -0.0000 -0.0000 0.0000 81.2055 9.5204 53.4145 -153.0320 38.1486 -110.5207 0.0000 0.0000 0.5425 -32.5497 30.0100 -17.7053 7.1250 -0.0000 -0.0000 -0.8244 4.4365 -0.8858
-0.5797 17.8815 0.6601 -122.9970 87.0698 -111.6570 0.0000 0.0000 0.0000 0.0000 0.0000 0.0000 0.0000 0.0000 0.0000 0.0000 0.0000 0.0000 0.0000 0.0000 0.0000 0.0000 0.0000 0.0000 16.1292 16.9458 -4.2534 -0.1077 -2.1157 5.8255 1.0151 -18.3283 -12.7819 -1.6929 8.1948 -23.3074 2.3608 3.9807 -2.4705 -0.0114 5.2804 -1.5501 -1.1901 2.6362 0.0032 6.2383 3.0047 -4.6350 24.1912 -0.1905 44.2197 11.0134 5.3898 17.4549 -0.0000 -0.0000 0.0000 -85.7103 -49.5030 45.2886 156.1387 -35.0173 -112.3732 -0.0000 0.0000 -49.2986 11.3166 18.2249 3.5813 -7.1250 0.0000 -0.0000 -16.1161 47.8672 -1.1686 -0.0000 -0.0000 0.0000 81.2269 9.4801 53.4720 -153.0361 38.1448 -110.5232 0.0000 0.0000 0.5957 -32.4917 30.1568 -17.7417 7.1250 -0.0000 -0.0000 -0.7612 4.5778 -0.8196
